<svg xmlns="http://www.w3.org/2000/svg" xmlns:xlink="http://www.w3.org/1999/xlink" version="1.1" data-diagram-type="DESCRIPTION" style="width:1279px;height:370px;background:#FFFFFF;" width="1279px" height="370px" viewBox="0 0 1279 370" zoomAndPan="magnify" preserveAspectRatio="none" contentStyleType="text/css"><?plantuml 1.2026.7beta8?><defs/><g font-family="sans-serif" lengthAdjust="spacing"><g class="title" data-source-line="1"><text x="423.545" y="22.995" fill="#000" font-size="14" textLength="424.936" font-weight="700">Diagrama de robustez - CU-04 Valorar película o serie</text></g><!--entity U--><g class="entity" data-qualified-name="U" id="ent0001" data-source-line="5"><ellipse cx="32.602" cy="179.947" rx="8" ry="8" fill="#F1F1F1" style="stroke:#181818;stroke-width:0.5;"/><path d="M32.602,187.947 L32.602,214.947 M19.602,195.947 L45.602,195.947 M32.602,214.947 L19.602,229.947 M32.602,214.947 L45.602,229.947" style="stroke:#181818;stroke-width:0.5;" fill="none"/><text x="6" y="244.442" fill="#000" font-size="14" textLength="53.204">Usuario</text></g><!--entity FC--><g class="entity" data-qualified-name="FC" id="ent0002" data-source-line="7"><path d="M369.427,181.297 L369.427,205.297 M369.427,193.297 L386.427,193.297" style="stroke:#181818;stroke-width:0.5;" fill="none"/><ellipse cx="398.427" cy="193.297" rx="12" ry="12" fill="#F1F1F1" style="stroke:#181818;stroke-width:0.5;"/><text x="355.2" y="222.292" fill="#000" font-size="14" textLength="59.042">Ficha de</text><text x="355.2" y="238.589" fill="#000" font-size="14" textLength="69.453">contenido</text></g><!--entity VV--><g class="entity" data-qualified-name="VV" id="ent0003" data-source-line="8"><ellipse cx="744.359" cy="201.447" rx="12" ry="12" fill="#F1F1F1" style="stroke:#181818;stroke-width:0.5;"/><polygon points="740.359,189.447,746.359,184.447,744.359,189.447,746.359,194.447,740.359,189.447" fill="#181818" style="stroke:#181818;stroke-width:1;stroke-linejoin:miter;stroke-miterlimit:10;"/><text x="700.66" y="230.442" fill="#000" font-size="14" textLength="87.397">vista valorar</text></g><!--entity MR--><g class="entity" data-qualified-name="MR" id="ent0004" data-source-line="9"><ellipse cx="1170.037" cy="60.297" rx="12" ry="12" fill="#F1F1F1" style="stroke:#181818;stroke-width:0.5;"/><polygon points="1166.037,48.297,1172.037,43.297,1170.037,48.297,1172.037,53.297,1166.037,48.297" fill="#181818" style="stroke:#181818;stroke-width:1;stroke-linejoin:miter;stroke-miterlimit:10;"/><text x="1076.05" y="89.292" fill="#000" font-size="14" textLength="187.975">MotorDeRecomendaciones</text><text x="1076.05" y="105.589" fill="#000" font-size="14" textLength="128.939">(marcar recálculo)</text></g><!--entity EC--><g class="entity" data-qualified-name="EC" id="ent0005" data-source-line="10"><ellipse cx="1170.047" cy="159.447" rx="12" ry="12" fill="#F1F1F1" style="stroke:#181818;stroke-width:0.5;"/><line x1="1158.047" y1="173.447" x2="1182.047" y2="173.447" style="stroke:#181818;stroke-width:0.5;"/><text x="1093.98" y="188.442" fill="#000" font-size="14" textLength="152.134">ContenidoAudiovisual</text></g><!--entity EV--><g class="entity" data-qualified-name="EV" id="ent0006" data-source-line="11"><ellipse cx="1170.046" cy="242.447" rx="12" ry="12" fill="#F1F1F1" style="stroke:#181818;stroke-width:0.5;"/><line x1="1158.046" y1="256.447" x2="1182.046" y2="256.447" style="stroke:#181818;stroke-width:0.5;"/><text x="1133.06" y="271.442" fill="#000" font-size="14" textLength="73.972">Valoración</text></g><!--entity ER--><g class="entity" data-qualified-name="ER" id="ent0007" data-source-line="12"><ellipse cx="1170.039" cy="325.447" rx="12" ry="12" fill="#F1F1F1" style="stroke:#181818;stroke-width:0.5;"/><line x1="1158.039" y1="339.447" x2="1182.039" y2="339.447" style="stroke:#181818;stroke-width:0.5;"/><text x="1113.93" y="354.442" fill="#000" font-size="14" textLength="112.219">Recomendación</text></g><!--link U to FC--><g class="link" data-entity-1="ent0001" data-entity-2="ent0002" id="lnk8" data-source-line="14" data-link-type="dependency"><path d="M59.44,209.597 C122.44,209.597 278.97,209.597 349.79,209.597" style="stroke:#181818;stroke-width:1;" fill="none" id="U-to-FC"/><polygon points="354.79,209.597,345.79,205.597,349.79,209.597,345.79,213.597,354.79,209.597" fill="#181818" style="stroke:#181818;stroke-width:1;stroke-linejoin:miter;stroke-miterlimit:10;"/><text x="90.2" y="205.664" fill="#000" font-size="13" textLength="234.032">elige puntuación (1-5) y comentario</text></g><!--link FC to VV--><g class="link" data-entity-1="ent0002" data-entity-2="ent0003" id="lnk9" data-source-line="15" data-link-type="dependency"><path d="M425.04,209.597 C489.56,209.597 624.34,209.597 695.24,209.597" style="stroke:#181818;stroke-width:1;" fill="none" id="FC-to-VV"/><polygon points="700.24,209.597,691.24,205.597,695.24,209.597,691.24,213.597,700.24,209.597" fill="#181818" style="stroke:#181818;stroke-width:1;stroke-linejoin:miter;stroke-miterlimit:10;"/><text x="509.16" y="205.664" fill="#000" font-size="13" textLength="107.129">envía valoración</text></g><!--link VV to FC--><g class="link" data-entity-1="ent0003" data-entity-2="ent0002" id="lnk15" data-source-line="21" data-link-type="dependency"><path d="M700.53,226.947 C690.86,230.117 680.53,232.947 670.66,234.597 C575.97,250.427 548.98,252.437 454.66,234.597 C444.73,232.717 439.025,231.162 429.615,227.472" style="stroke:#181818;stroke-width:1;" fill="none" id="VV-to-FC"/><polygon points="424.96,225.647,431.879,232.656,429.615,227.472,434.799,225.209,424.96,225.647" fill="#181818" style="stroke:#181818;stroke-width:1;stroke-linejoin:miter;stroke-miterlimit:10;"/><text x="455.66" y="230.664" fill="#000" font-size="13" textLength="214.875">confirma y muestra la valoración</text></g><!--link VV to EC--><g class="link" data-entity-1="ent0003" data-entity-2="ent0005" id="lnk10" data-source-line="16" data-link-type="dependency"><path d="M788.31,205.337 C859.95,198.237 999.714,184.38 1088.644,175.57" style="stroke:#181818;stroke-width:1;" fill="none" id="VV-to-EC"/><polygon points="1093.62,175.077,1084.27,171.984,1088.644,175.57,1085.058,179.945,1093.62,175.077" fill="#181818" style="stroke:#181818;stroke-width:1;stroke-linejoin:miter;stroke-miterlimit:10;"/><text x="849.05" y="176.664" fill="#000" font-size="13" textLength="166.569">verifica publicado (FE-02)</text></g><!--link VV to VV--><g class="link" data-entity-1="ent0003" data-entity-2="ent0003" id="lnk11" data-source-line="17" data-link-type="dependency"><path d="M713.78,184.987 C704.18,167.637 714.37,150.447 744.36,150.447 C774.34,150.447 786.951,163.262 777.351,180.612" style="stroke:#181818;stroke-width:1;" fill="none" id="VV-to-VV"/><polygon points="774.93,184.987,782.787,179.049,777.351,180.612,775.787,175.175,774.93,184.987" fill="#181818" style="stroke:#181818;stroke-width:1;stroke-linejoin:miter;stroke-miterlimit:10;"/><text x="641.86" y="141.514" fill="#000" font-size="13" textLength="205.81">valida rango 1-5 (RN-05, FE-01)</text></g><!--link VV to EV--><g class="link" data-entity-1="ent0003" data-entity-2="ent0006" id="lnk12" data-source-line="18" data-link-type="dependency"><path d="M788.54,221.627 C798.19,223.937 808.42,226.097 818.05,227.597 C931.95,245.287 1063.701,249.323 1127.681,250.263" style="stroke:#181818;stroke-width:1;" fill="none" id="VV-to-EV"/><polygon points="1132.68,250.337,1123.74,246.205,1127.681,250.263,1123.622,254.204,1132.68,250.337" fill="#181818" style="stroke:#181818;stroke-width:1;stroke-linejoin:miter;stroke-miterlimit:10;"/><text x="853.55" y="223.664" fill="#000" font-size="13" textLength="157.371">crea o actualiza (RN-06)</text></g><!--link VV to ER--><g class="link" data-entity-1="ent0003" data-entity-2="ent0007" id="lnk13" data-source-line="19" data-link-type="dependency"><path d="M767.22,234.227 C780.57,247.687 798.74,263.437 818.05,272.597 C915.14,318.667 1037.124,330.107 1108.704,332.827" style="stroke:#181818;stroke-width:1;" fill="none" id="VV-to-ER"/><polygon points="1113.7,333.017,1104.858,328.678,1108.704,332.827,1104.555,336.672,1113.7,333.017" fill="#181818" style="stroke:#181818;stroke-width:1;stroke-linejoin:miter;stroke-miterlimit:10;"/><text x="819.05" y="268.664" fill="#000" font-size="13" textLength="226.916">elimina recomendaciones vigentes</text></g><!--link VV to MR--><g class="link" data-entity-1="ent0003" data-entity-2="ent0004" id="lnk14" data-source-line="20" data-link-type="dependency"><path d="M772.61,185.087 C785.57,174.597 801.76,163.077 818.05,155.597 C900.8,117.637 998.141,98.01 1070.911,87.53" style="stroke:#181818;stroke-width:1;" fill="none" id="VV-to-MR"/><polygon points="1075.86,86.817,1066.382,84.141,1070.911,87.53,1067.522,92.059,1075.86,86.817" fill="#181818" style="stroke:#181818;stroke-width:1;stroke-linejoin:miter;stroke-miterlimit:10;"/><text x="876.55" y="88.664" fill="#000" font-size="13" textLength="111.319">dispara recálculo</text></g><?plantuml-src LP8zRkCm48LxdcBWoWOYm0asMwG8i73ipYa4M5MQCJcM1qkH1d-qS6wJ0wJA4Non7KgGurG2-BxvUM-KE5c25yOsO8TW28BVvvZe7IfOxQhbBsZG-e01JcGldpfR10-H0fEoT4YGF0HkZmaC1zA9lLFnBxiJIaE8HpJ-7xiM3cWZAOKw-G2pNSmOsCy08-oKslli38Opp3QiZsMDDwUzI-JOZD1cfSf3y1PcFSU4q8zh3MhJVAjRBnDUg2RjEvAkMZQY-ERc7GOjDcJ9ouSL7tunr6vhHIvnak6hQUIVRDZBc8nsODQhApEceVdovKQfkKet8wzghTGEgkfP3C0JaEMMu9HToYC4y_lgSG5d62fJoKG9MGgQfXIu_l8vUHqgbBmNULtwzNA60skKbdihN-DXlbbNouV5X0rTf9mDGa3NUf21CAzVg-NZ7HJs_igk2wi3bGFBdSGyl-F8_lw6wj57nmvBbhSXGo_s9C8umTi26uxbPxW9VfA7JEHm1mxoxvsXonIJaFQ7u_y0?></g></svg>