<svg xmlns="http://www.w3.org/2000/svg" xmlns:xlink="http://www.w3.org/1999/xlink" version="1.1" data-diagram-type="SEQUENCE" style="width:1149px;height:746px;background:#FFFFFF;" width="1149px" height="746px" viewBox="0 0 1149 746" zoomAndPan="magnify" preserveAspectRatio="none" contentStyleType="text/css"><?plantuml 1.2026.7beta8?><defs/><g font-family="sans-serif" lengthAdjust="spacing"><g class="title" data-source-line="1"><text x="318.6" y="27.995" fill="#000" font-size="14" textLength="510.378" font-weight="700">Diagrama de secuencia - CU-07 Gestionar solicitudes de amistad</text></g><g><title>Usuario</title><rect x="36.102" y="123.594" width="8" height="535.797" fill="#000" fill-opacity="0"/><line x1="39.602" y1="123.594" x2="39.602" y2="659.391" style="stroke:#181818;stroke-width:0.5;stroke-dasharray:5,5;"/></g><g><title>Destinatario</title><rect x="121.603" y="123.594" width="8" height="535.797" fill="#000" fill-opacity="0"/><line x1="125.103" y1="123.594" x2="125.103" y2="659.391" style="stroke:#181818;stroke-width:0.5;stroke-dasharray:5,5;"/></g><g><title>Pantalla de amigos</title><rect x="324.956" y="123.594" width="8" height="535.797" fill="#000" fill-opacity="0"/><line x1="328.456" y1="123.594" x2="328.456" y2="659.391" style="stroke:#181818;stroke-width:0.5;stroke-dasharray:5,5;"/></g><g><title>enviar_solicitud</title><rect x="565.64" y="123.594" width="8" height="535.797" fill="#000" fill-opacity="0"/><line x1="569.14" y1="123.594" x2="569.14" y2="659.391" style="stroke:#181818;stroke-width:0.5;stroke-dasharray:5,5;"/></g><g><title>responder_solicitud</title><rect x="704.734" y="123.594" width="8" height="535.797" fill="#000" fill-opacity="0"/><line x1="708.234" y1="123.594" x2="708.234" y2="659.391" style="stroke:#181818;stroke-width:0.5;stroke-dasharray:5,5;"/></g><g><title>Amistad</title><rect x="975.182" y="123.594" width="8" height="535.797" fill="#000" fill-opacity="0"/><line x1="978.682" y1="123.594" x2="978.682" y2="659.391" style="stroke:#181818;stroke-width:0.5;stroke-dasharray:5,5;"/></g><g><title>Recomendaci.n</title><rect x="1075.968" y="123.594" width="8" height="535.797" fill="#000" fill-opacity="0"/><line x1="1079.468" y1="123.594" x2="1079.468" y2="659.391" style="stroke:#181818;stroke-width:0.5;stroke-dasharray:5,5;"/></g><text x="10" y="120.292" fill="#000" font-size="14" textLength="53.204">Usuario</text><ellipse cx="39.602" cy="55.797" rx="8" ry="8" fill="#E2E2F0" style="stroke:#181818;stroke-width:0.5;"/><path d="M39.602,63.797 L39.602,90.797 M26.602,71.797 L52.602,71.797 M39.602,90.797 L26.602,105.797 M39.602,90.797 L52.602,105.797" style="stroke:#181818;stroke-width:0.5;" fill="none"/><text x="79.204" y="120.292" fill="#000" font-size="14" textLength="85.798">Destinatario</text><ellipse cx="125.103" cy="55.797" rx="8" ry="8" fill="#E2E2F0" style="stroke:#181818;stroke-width:0.5;"/><path d="M125.103,63.797 L125.103,90.797 M112.103,71.797 L138.103,71.797 M125.103,90.797 L112.103,105.797 M125.103,90.797 L138.103,105.797" style="stroke:#181818;stroke-width:0.5;" fill="none"/><text x="258.669" y="120.292" fill="#000" font-size="14" textLength="133.574">Pantalla de amigos</text><path d="M307.956,79.297 L307.956,103.297 M307.956,91.297 L324.956,91.297" style="stroke:#181818;stroke-width:0.5;" fill="none"/><ellipse cx="336.956" cy="91.297" rx="12" ry="12" fill="#E2E2F0" style="stroke:#181818;stroke-width:0.5;"/><text x="511.404" y="120.292" fill="#000" font-size="14" textLength="109.471">enviar_solicitud</text><ellipse cx="569.14" cy="91.297" rx="12" ry="12" fill="#E2E2F0" style="stroke:#181818;stroke-width:0.5;"/><polygon points="565.14,79.297,571.14,74.297,569.14,79.297,571.14,84.297,565.14,79.297" fill="#181818" style="stroke:#181818;stroke-width:1;stroke-linejoin:miter;stroke-miterlimit:10;"/><text x="636.875" y="120.292" fill="#000" font-size="14" textLength="136.719">responder_solicitud</text><ellipse cx="708.234" cy="91.297" rx="12" ry="12" fill="#E2E2F0" style="stroke:#181818;stroke-width:0.5;"/><polygon points="704.234,79.297,710.234,74.297,708.234,79.297,710.234,84.297,704.234,79.297" fill="#181818" style="stroke:#181818;stroke-width:1;stroke-linejoin:miter;stroke-miterlimit:10;"/><text x="947.005" y="120.292" fill="#000" font-size="14" textLength="57.354">Amistad</text><ellipse cx="978.682" cy="91.297" rx="12" ry="12" fill="#E2E2F0" style="stroke:#181818;stroke-width:0.5;"/><line x1="966.682" y1="105.297" x2="990.682" y2="105.297" style="stroke:#181818;stroke-width:0.5;"/><text x="1020.359" y="120.292" fill="#000" font-size="14" textLength="112.219">Recomendación</text><ellipse cx="1079.468" cy="91.297" rx="12" ry="12" fill="#E2E2F0" style="stroke:#181818;stroke-width:0.5;"/><line x1="1067.468" y1="105.297" x2="1091.468" y2="105.297" style="stroke:#181818;stroke-width:0.5;"/><text x="10" y="672.386" fill="#000" font-size="14" textLength="53.204">Usuario</text><ellipse cx="39.602" cy="684.188" rx="8" ry="8" fill="#E2E2F0" style="stroke:#181818;stroke-width:0.5;"/><path d="M39.602,692.188 L39.602,719.188 M26.602,700.188 L52.602,700.188 M39.602,719.188 L26.602,734.188 M39.602,719.188 L52.602,734.188" style="stroke:#181818;stroke-width:0.5;" fill="none"/><text x="79.204" y="672.386" fill="#000" font-size="14" textLength="85.798">Destinatario</text><ellipse cx="125.103" cy="684.188" rx="8" ry="8" fill="#E2E2F0" style="stroke:#181818;stroke-width:0.5;"/><path d="M125.103,692.188 L125.103,719.188 M112.103,700.188 L138.103,700.188 M125.103,719.188 L112.103,734.188 M125.103,719.188 L138.103,734.188" style="stroke:#181818;stroke-width:0.5;" fill="none"/><text x="258.669" y="672.386" fill="#000" font-size="14" textLength="133.574">Pantalla de amigos</text><path d="M307.956,679.688 L307.956,703.688 M307.956,691.688 L324.956,691.688" style="stroke:#181818;stroke-width:0.5;" fill="none"/><ellipse cx="336.956" cy="691.688" rx="12" ry="12" fill="#E2E2F0" style="stroke:#181818;stroke-width:0.5;"/><text x="511.404" y="672.386" fill="#000" font-size="14" textLength="109.471">enviar_solicitud</text><ellipse cx="569.14" cy="691.688" rx="12" ry="12" fill="#E2E2F0" style="stroke:#181818;stroke-width:0.5;"/><polygon points="565.14,679.688,571.14,674.688,569.14,679.688,571.14,684.688,565.14,679.688" fill="#181818" style="stroke:#181818;stroke-width:1;stroke-linejoin:miter;stroke-miterlimit:10;"/><text x="636.875" y="672.386" fill="#000" font-size="14" textLength="136.719">responder_solicitud</text><ellipse cx="708.234" cy="691.688" rx="12" ry="12" fill="#E2E2F0" style="stroke:#181818;stroke-width:0.5;"/><polygon points="704.234,679.688,710.234,674.688,708.234,679.688,710.234,684.688,704.234,679.688" fill="#181818" style="stroke:#181818;stroke-width:1;stroke-linejoin:miter;stroke-miterlimit:10;"/><text x="947.005" y="672.386" fill="#000" font-size="14" textLength="57.354">Amistad</text><ellipse cx="978.682" cy="691.688" rx="12" ry="12" fill="#E2E2F0" style="stroke:#181818;stroke-width:0.5;"/><line x1="966.682" y1="705.688" x2="990.682" y2="705.688" style="stroke:#181818;stroke-width:0.5;"/><text x="1020.359" y="672.386" fill="#000" font-size="14" textLength="112.219">Recomendación</text><ellipse cx="1079.468" cy="691.688" rx="12" ry="12" fill="#E2E2F0" style="stroke:#181818;stroke-width:0.5;"/><line x1="1067.468" y1="705.688" x2="1091.468" y2="705.688" style="stroke:#181818;stroke-width:0.5;"/><polygon points="316.456,148.727,326.456,152.727,316.456,156.727,320.456,152.727" fill="#181818" style="stroke:#181818;stroke-width:1;stroke-linejoin:miter;stroke-miterlimit:10;"/><line x1="39.602" y1="152.727" x2="322.456" y2="152.727" style="stroke:#181818;stroke-width:1;"/><text x="46.602" y="147.661" fill="#000" font-size="13" textLength="153.417">selecciona a un usuario</text><polygon points="557.14,177.859,567.14,181.859,557.14,185.859,561.14,181.859" fill="#181818" style="stroke:#181818;stroke-width:1;stroke-linejoin:miter;stroke-miterlimit:10;"/><line x1="328.456" y1="181.859" x2="563.14" y2="181.859" style="stroke:#181818;stroke-width:1;"/><text x="335.456" y="176.793" fill="#000" font-size="13" textLength="216.684">POST enviar_solicitud(usuario_id)</text><polygon points="966.682,206.992,976.682,210.992,966.682,214.992,970.682,210.992" fill="#181818" style="stroke:#181818;stroke-width:1;stroke-linejoin:miter;stroke-miterlimit:10;"/><line x1="569.14" y1="210.992" x2="972.682" y2="210.992" style="stroke:#181818;stroke-width:1;"/><text x="576.14" y="205.926" fill="#000" font-size="13" textLength="267.478">filter(entre ambos) -- ¿ya existe? (RN-09)</text><path d="M312.456,222.992 L376.899,222.992 L376.899,230.125 L366.899,240.125 L312.456,240.125 L312.456,222.992" style="stroke:#000;stroke-width:1.5;" fill="#EEE"/><rect x="312.456" y="222.992" width="682.226" height="132.531" fill="none" style="stroke:#000;stroke-width:1.5;"/><text x="327.456" y="236.059" fill="#000" font-size="13" textLength="19.443" font-weight="700">alt</text><text x="391.899" y="235.203" fill="#000" font-size="11" textLength="66.07" font-weight="700">[ya existe]</text><line x1="312.456" y1="290.258" x2="994.682" y2="290.258" style="stroke:#000;stroke-width:1;stroke-dasharray:2,2;"/><polygon points="339.456,267.258,329.456,271.258,339.456,275.258,335.456,271.258" fill="#181818" style="stroke:#181818;stroke-width:1;stroke-linejoin:miter;stroke-miterlimit:10;"/><line x1="333.456" y1="271.258" x2="568.14" y2="271.258" style="stroke:#181818;stroke-width:1;stroke-dasharray:2,2;"/><text x="345.456" y="266.192" fill="#000" font-size="13" textLength="197.717">ya tienes una solicitud (FE-01)</text><polygon points="966.682,314.391,976.682,318.391,966.682,322.391,970.682,318.391" fill="#181818" style="stroke:#181818;stroke-width:1;stroke-linejoin:miter;stroke-miterlimit:10;"/><line x1="569.14" y1="318.391" x2="972.682" y2="318.391" style="stroke:#181818;stroke-width:1;"/><text x="576.14" y="313.325" fill="#000" font-size="13" textLength="180.343">create(estado=PENDIENTE)</text><polygon points="339.456,343.523,329.456,347.523,339.456,351.523,335.456,347.523" fill="#181818" style="stroke:#181818;stroke-width:1;stroke-linejoin:miter;stroke-miterlimit:10;"/><line x1="333.456" y1="347.523" x2="568.14" y2="347.523" style="stroke:#181818;stroke-width:1;stroke-dasharray:2,2;"/><text x="345.456" y="342.458" fill="#000" font-size="13" textLength="110.157">solicitud enviada</text><polygon points="316.456,386.656,326.456,390.656,316.456,394.656,320.456,390.656" fill="#181818" style="stroke:#181818;stroke-width:1;stroke-linejoin:miter;stroke-miterlimit:10;"/><line x1="125.103" y1="390.656" x2="322.456" y2="390.656" style="stroke:#181818;stroke-width:1;"/><text x="132.103" y="385.59" fill="#000" font-size="13" textLength="179.353">abre solicitudes pendientes</text><polygon points="696.234,415.789,706.234,419.789,696.234,423.789,700.234,419.789" fill="#181818" style="stroke:#181818;stroke-width:1;stroke-linejoin:miter;stroke-miterlimit:10;"/><line x1="328.456" y1="419.789" x2="702.234" y2="419.789" style="stroke:#181818;stroke-width:1;"/><text x="335.456" y="414.723" fill="#000" font-size="13" textLength="237.688">POST responder_solicitud(id, accion)</text><path d="M312.456,431.789 L376.899,431.789 L376.899,438.922 L366.899,448.922 L312.456,448.922 L312.456,431.789" style="stroke:#000;stroke-width:1.5;" fill="#EEE"/><rect x="312.456" y="431.789" width="783.012" height="203.602" fill="none" style="stroke:#000;stroke-width:1.5;"/><text x="327.456" y="444.856" fill="#000" font-size="13" textLength="19.443" font-weight="700">alt</text><text x="391.899" y="444" fill="#000" font-size="11" textLength="57.438" font-weight="700">[aceptar]</text><line x1="312.456" y1="557.32" x2="1095.468" y2="557.32" style="stroke:#000;stroke-width:1;stroke-dasharray:2,2;"/><text x="317.456" y="569.531" fill="#000" font-size="11" textLength="63.964" font-weight="700">[rechazar]</text><polygon points="966.682,476.055,976.682,480.055,966.682,484.055,970.682,480.055" fill="#181818" style="stroke:#181818;stroke-width:1;stroke-linejoin:miter;stroke-miterlimit:10;"/><line x1="708.234" y1="480.055" x2="972.682" y2="480.055" style="stroke:#181818;stroke-width:1;"/><text x="715.234" y="474.989" fill="#000" font-size="13" textLength="246.448">aceptar() -- estado=ACEPTADA, fecha</text><polygon points="1067.468,505.188,1077.468,509.188,1067.468,513.188,1071.468,509.188" fill="#181818" style="stroke:#181818;stroke-width:1;stroke-linejoin:miter;stroke-miterlimit:10;"/><line x1="708.234" y1="509.188" x2="1073.468" y2="509.188" style="stroke:#181818;stroke-width:1;"/><text x="715.234" y="504.122" fill="#000" font-size="13" textLength="187.389">delete() -- recalcular (RN-07)</text><polygon points="339.456,534.32,329.456,538.32,339.456,542.32,335.456,538.32" fill="#181818" style="stroke:#181818;stroke-width:1;stroke-linejoin:miter;stroke-miterlimit:10;"/><line x1="333.456" y1="538.32" x2="707.234" y2="538.32" style="stroke:#181818;stroke-width:1;stroke-dasharray:2,2;"/><text x="345.456" y="533.254" fill="#000" font-size="13" textLength="115.921">ahora son amigos</text><polygon points="966.682,594.258,976.682,598.258,966.682,602.258,970.682,598.258" fill="#181818" style="stroke:#181818;stroke-width:1;stroke-linejoin:miter;stroke-miterlimit:10;"/><line x1="708.234" y1="598.258" x2="972.682" y2="598.258" style="stroke:#181818;stroke-width:1;"/><text x="715.234" y="593.192" fill="#000" font-size="13" textLength="221.248">rechazar() -- estado=RECHAZADA</text><polygon points="339.456,623.391,329.456,627.391,339.456,631.391,335.456,627.391" fill="#181818" style="stroke:#181818;stroke-width:1;stroke-linejoin:miter;stroke-miterlimit:10;"/><line x1="333.456" y1="627.391" x2="707.234" y2="627.391" style="stroke:#181818;stroke-width:1;stroke-dasharray:2,2;"/><text x="345.456" y="622.325" fill="#000" font-size="13" textLength="126.134">solicitud rechazada</text><?plantuml-src RPB1ZjD038RlynHMJucqaRgd5KY0eYOBN4gKjXSkAtV6RKTCPwgP2R2y5W-012-69qdJ9U9g_xO__tRKqH1K6eyUpmYA893io4gDKC1gLomVu3s5g9r53y4PBNNi58KanRCE4PK8NxIz83U0S4BblcbxX0EQG09bT1uMkz2Xrsu1661t3LQfhSKuPIgnTvrLw9zXqQ2DQ0oEOuukz9Ac5DBPw9s11Tcl6ltJnDGBwirDu2bSd5KqrxGRGJRgo6FAOOEXj9p2BKbt9aQH-izFEsHR8NPGl6K4UCqc6P8ocG88dOLkM51maYNrXYNDfyqMvepPA7pIAXSiI-BKxw1D99_nV9_stRkGGr70xr_F2FIT6UaTPEswMBxA1Pe8KrX0cbPSkJWUDLa-JyTeqrZ87kjYUPyBIaSPIiR9qXD6oYZPuDuqzRhwMA-tTJvhV6lLhwIGlL92L9CZk6Vob_znOG6ZH0gZA-taodyEasbr1zXREco8aYxy6epHtc37ODQRCoANgxhPbbLv1mUI9xmLj5oW-4wyNQ_t9D78pl0VzrO-vADsMk7aV3BDZX_NkvNAJlXZJdAD_eFIrgiFvMTccJM-cJUM3VRz1G00?></g></svg>