<svg xmlns="http://www.w3.org/2000/svg" xmlns:xlink="http://www.w3.org/1999/xlink" version="1.1" data-diagram-type="SEQUENCE" style="width:1206px;height:830px;background:#FFFFFF;" width="1206px" height="830px" viewBox="0 0 1206 830" zoomAndPan="magnify" preserveAspectRatio="none" contentStyleType="text/css"><?plantuml 1.2026.7beta8?><defs/><g font-family="sans-serif" lengthAdjust="spacing"><g class="title" data-source-line="1"><text x="424.563" y="27.995" fill="#000" font-size="14" textLength="355.852" font-weight="700">Diagrama de secuencia - CU-02 Iniciar sesión</text></g><g><title>Usuario</title><rect x="36.102" y="123.594" width="8" height="620.063" fill="#000" fill-opacity="0"/><line x1="39.602" y1="123.594" x2="39.602" y2="743.656" style="stroke:#181818;stroke-width:0.5;stroke-dasharray:5,5;"/></g><g><title>Pantalla de login</title><rect x="277.154" y="123.594" width="8" height="620.063" fill="#000" fill-opacity="0"/><line x1="280.654" y1="123.594" x2="280.654" y2="743.656" style="stroke:#181818;stroke-width:0.5;stroke-dasharray:5,5;"/></g><g><title>AccesoView</title><rect x="504.774" y="123.594" width="8" height="620.063" fill="#000" fill-opacity="0"/><line x1="508.274" y1="123.594" x2="508.274" y2="743.656" style="stroke:#181818;stroke-width:0.5;stroke-dasharray:5,5;"/></g><g><title>LoginForm</title><rect x="658.603" y="123.594" width="8" height="620.063" fill="#000" fill-opacity="0"/><line x1="662.103" y1="123.594" x2="662.103" y2="743.656" style="stroke:#181818;stroke-width:0.5;stroke-dasharray:5,5;"/></g><g><title>cache de intentos</title><rect x="954.756" y="123.594" width="8" height="620.063" fill="#000" fill-opacity="0"/><line x1="958.256" y1="123.594" x2="958.256" y2="743.656" style="stroke:#181818;stroke-width:0.5;stroke-dasharray:5,5;"/></g><g><title>Usuario .User.</title><rect x="1083.474" y="123.594" width="8" height="620.063" fill="#000" fill-opacity="0"/><line x1="1086.974" y1="123.594" x2="1086.974" y2="743.656" style="stroke:#181818;stroke-width:0.5;stroke-dasharray:5,5;"/></g><g><title>Perfil</title><rect x="1167.478" y="123.594" width="8" height="620.063" fill="#000" fill-opacity="0"/><line x1="1170.978" y1="123.594" x2="1170.978" y2="743.656" style="stroke:#181818;stroke-width:0.5;stroke-dasharray:5,5;"/></g><text x="10" y="120.292" fill="#000" font-size="14" textLength="53.204">Usuario</text><ellipse cx="39.602" cy="55.797" rx="8" ry="8" fill="#E2E2F0" style="stroke:#181818;stroke-width:0.5;"/><path d="M39.602,63.797 L39.602,90.797 M26.602,71.797 L52.602,71.797 M39.602,90.797 L26.602,105.797 M39.602,90.797 L52.602,105.797" style="stroke:#181818;stroke-width:0.5;" fill="none"/><text x="219.241" y="120.292" fill="#000" font-size="14" textLength="116.826">Pantalla de login</text><path d="M260.154,79.297 L260.154,103.297 M260.154,91.297 L277.154,91.297" style="stroke:#181818;stroke-width:0.5;" fill="none"/><ellipse cx="289.154" cy="91.297" rx="12" ry="12" fill="#E2E2F0" style="stroke:#181818;stroke-width:0.5;"/><text x="463.787" y="120.292" fill="#000" font-size="14" textLength="82.975">AccesoView</text><ellipse cx="508.274" cy="91.297" rx="12" ry="12" fill="#E2E2F0" style="stroke:#181818;stroke-width:0.5;"/><polygon points="504.274,79.297,510.274,74.297,508.274,79.297,510.274,84.297,504.274,79.297" fill="#181818" style="stroke:#181818;stroke-width:1;stroke-linejoin:miter;stroke-miterlimit:10;"/><text x="622.089" y="120.292" fill="#000" font-size="14" textLength="74.026">LoginForm</text><ellipse cx="662.103" cy="91.297" rx="12" ry="12" fill="#E2E2F0" style="stroke:#181818;stroke-width:0.5;"/><line x1="650.103" y1="105.297" x2="674.103" y2="105.297" style="stroke:#181818;stroke-width:0.5;"/><text x="892.782" y="120.292" fill="#000" font-size="14" textLength="124.947">cache de intentos</text><ellipse cx="958.256" cy="91.297" rx="12" ry="12" fill="#E2E2F0" style="stroke:#181818;stroke-width:0.5;"/><line x1="946.256" y1="105.297" x2="970.256" y2="105.297" style="stroke:#181818;stroke-width:0.5;"/><text x="1033.729" y="120.292" fill="#000" font-size="14" textLength="100.488">Usuario (User)</text><ellipse cx="1086.974" cy="91.297" rx="12" ry="12" fill="#E2E2F0" style="stroke:#181818;stroke-width:0.5;"/><line x1="1074.974" y1="105.297" x2="1098.974" y2="105.297" style="stroke:#181818;stroke-width:0.5;"/><text x="1150.218" y="120.292" fill="#000" font-size="14" textLength="35.52">Perfil</text><ellipse cx="1170.978" cy="91.297" rx="12" ry="12" fill="#E2E2F0" style="stroke:#181818;stroke-width:0.5;"/><line x1="1158.978" y1="105.297" x2="1182.978" y2="105.297" style="stroke:#181818;stroke-width:0.5;"/><text x="10" y="756.651" fill="#000" font-size="14" textLength="53.204">Usuario</text><ellipse cx="39.602" cy="768.453" rx="8" ry="8" fill="#E2E2F0" style="stroke:#181818;stroke-width:0.5;"/><path d="M39.602,776.453 L39.602,803.453 M26.602,784.453 L52.602,784.453 M39.602,803.453 L26.602,818.453 M39.602,803.453 L52.602,818.453" style="stroke:#181818;stroke-width:0.5;" fill="none"/><text x="219.241" y="756.651" fill="#000" font-size="14" textLength="116.826">Pantalla de login</text><path d="M260.154,763.953 L260.154,787.953 M260.154,775.953 L277.154,775.953" style="stroke:#181818;stroke-width:0.5;" fill="none"/><ellipse cx="289.154" cy="775.953" rx="12" ry="12" fill="#E2E2F0" style="stroke:#181818;stroke-width:0.5;"/><text x="463.787" y="756.651" fill="#000" font-size="14" textLength="82.975">AccesoView</text><ellipse cx="508.274" cy="775.953" rx="12" ry="12" fill="#E2E2F0" style="stroke:#181818;stroke-width:0.5;"/><polygon points="504.274,763.953,510.274,758.953,508.274,763.953,510.274,768.953,504.274,763.953" fill="#181818" style="stroke:#181818;stroke-width:1;stroke-linejoin:miter;stroke-miterlimit:10;"/><text x="622.089" y="756.651" fill="#000" font-size="14" textLength="74.026">LoginForm</text><ellipse cx="662.103" cy="775.953" rx="12" ry="12" fill="#E2E2F0" style="stroke:#181818;stroke-width:0.5;"/><line x1="650.103" y1="789.953" x2="674.103" y2="789.953" style="stroke:#181818;stroke-width:0.5;"/><text x="892.782" y="756.651" fill="#000" font-size="14" textLength="124.947">cache de intentos</text><ellipse cx="958.256" cy="775.953" rx="12" ry="12" fill="#E2E2F0" style="stroke:#181818;stroke-width:0.5;"/><line x1="946.256" y1="789.953" x2="970.256" y2="789.953" style="stroke:#181818;stroke-width:0.5;"/><text x="1033.729" y="756.651" fill="#000" font-size="14" textLength="100.488">Usuario (User)</text><ellipse cx="1086.974" cy="775.953" rx="12" ry="12" fill="#E2E2F0" style="stroke:#181818;stroke-width:0.5;"/><line x1="1074.974" y1="789.953" x2="1098.974" y2="789.953" style="stroke:#181818;stroke-width:0.5;"/><text x="1150.218" y="756.651" fill="#000" font-size="14" textLength="35.52">Perfil</text><ellipse cx="1170.978" cy="775.953" rx="12" ry="12" fill="#E2E2F0" style="stroke:#181818;stroke-width:0.5;"/><line x1="1158.978" y1="789.953" x2="1182.978" y2="789.953" style="stroke:#181818;stroke-width:0.5;"/><polygon points="268.654,148.727,278.654,152.727,268.654,156.727,272.654,152.727" fill="#181818" style="stroke:#181818;stroke-width:1;stroke-linejoin:miter;stroke-miterlimit:10;"/><line x1="39.602" y1="152.727" x2="274.654" y2="152.727" style="stroke:#181818;stroke-width:1;"/><text x="46.602" y="147.661" fill="#000" font-size="13" textLength="217.052">ingresa alias/correo y contraseña</text><polygon points="496.274,177.859,506.274,181.859,496.274,185.859,500.274,181.859" fill="#181818" style="stroke:#181818;stroke-width:1;stroke-linejoin:miter;stroke-miterlimit:10;"/><line x1="280.654" y1="181.859" x2="502.274" y2="181.859" style="stroke:#181818;stroke-width:1;"/><text x="287.654" y="176.793" fill="#000" font-size="13" textLength="90.251">POST acceder</text><polygon points="946.256,206.992,956.256,210.992,946.256,214.992,950.256,210.992" fill="#181818" style="stroke:#181818;stroke-width:1;stroke-linejoin:miter;stroke-miterlimit:10;"/><line x1="508.274" y1="210.992" x2="952.256" y2="210.992" style="stroke:#181818;stroke-width:1;"/><text x="515.274" y="205.926" fill="#000" font-size="13" textLength="84.5">get(intentos)</text><path d="M245.654,222.992 L310.097,222.992 L310.097,230.125 L300.097,240.125 L245.654,240.125 L245.654,222.992" style="stroke:#000;stroke-width:1.5;" fill="#EEE"/><rect x="245.654" y="222.992" width="941.324" height="496.664" fill="none" style="stroke:#000;stroke-width:1.5;"/><text x="260.654" y="236.059" fill="#000" font-size="13" textLength="19.443" font-weight="700">alt</text><text x="325.097" y="235.203" fill="#000" font-size="11" textLength="146.749" font-weight="700">[intentos >= 5 (RN-03)]</text><line x1="245.654" y1="290.258" x2="1186.978" y2="290.258" style="stroke:#000;stroke-width:1;stroke-dasharray:2,2;"/><polygon points="291.654,267.258,281.654,271.258,291.654,275.258,287.654,271.258" fill="#181818" style="stroke:#181818;stroke-width:1;stroke-linejoin:miter;stroke-miterlimit:10;"/><line x1="285.654" y1="271.258" x2="507.274" y2="271.258" style="stroke:#181818;stroke-width:1;stroke-dasharray:2,2;"/><text x="297.654" y="266.192" fill="#000" font-size="13" textLength="166.48">bloqueo temporal (FE-03)</text><polygon points="650.103,314.391,660.103,318.391,650.103,322.391,654.103,318.391" fill="#181818" style="stroke:#181818;stroke-width:1;stroke-linejoin:miter;stroke-miterlimit:10;"/><line x1="508.274" y1="318.391" x2="656.103" y2="318.391" style="stroke:#181818;stroke-width:1;"/><text x="515.274" y="313.325" fill="#000" font-size="13" textLength="58.164">is_valid()</text><line x1="662.103" y1="347.523" x2="704.103" y2="347.523" style="stroke:#181818;stroke-width:1;"/><line x1="704.103" y1="347.523" x2="704.103" y2="360.523" style="stroke:#181818;stroke-width:1;"/><line x1="663.103" y1="360.523" x2="704.103" y2="360.523" style="stroke:#181818;stroke-width:1;"/><polygon points="673.103,356.523,663.103,360.523,673.103,364.523,669.103,360.523" fill="#181818" style="stroke:#181818;stroke-width:1;stroke-linejoin:miter;stroke-miterlimit:10;"/><text x="669.103" y="342.458" fill="#000" font-size="13" textLength="282.153">clean_username() -- resuelve alias o correo</text><polygon points="1074.974,385.656,1084.974,389.656,1074.974,393.656,1078.974,389.656" fill="#181818" style="stroke:#181818;stroke-width:1;stroke-linejoin:miter;stroke-miterlimit:10;"/><line x1="662.103" y1="389.656" x2="1080.974" y2="389.656" style="stroke:#181818;stroke-width:1;"/><text x="669.103" y="384.59" fill="#000" font-size="13" textLength="92.841">authenticate()</text><polygon points="1158.978,414.789,1168.978,418.789,1158.978,422.789,1162.978,418.789" fill="#181818" style="stroke:#181818;stroke-width:1;stroke-linejoin:miter;stroke-miterlimit:10;"/><line x1="662.103" y1="418.789" x2="1164.978" y2="418.789" style="stroke:#181818;stroke-width:1;"/><text x="669.103" y="413.723" fill="#000" font-size="13" textLength="195.965">puede_iniciar_sesion() (FE-02)</text><path d="M264.654,430.789 L329.097,430.789 L329.097,437.922 L319.097,447.922 L264.654,447.922 L264.654,430.789" style="stroke:#000;stroke-width:1.5;" fill="#EEE"/><rect x="264.654" y="430.789" width="709.602" height="274.867" fill="none" style="stroke:#000;stroke-width:1.5;"/><text x="279.654" y="443.856" fill="#000" font-size="13" textLength="19.443" font-weight="700">alt</text><text x="344.097" y="443" fill="#000" font-size="11" textLength="147.528" font-weight="700">[credenciales inválidas]</text><line x1="264.654" y1="556.32" x2="974.256" y2="556.32" style="stroke:#000;stroke-width:1;stroke-dasharray:2,2;"/><text x="269.654" y="568.531" fill="#000" font-size="11" textLength="107.637" font-weight="700">[acceso correcto]</text><polygon points="519.274,475.055,509.274,479.055,519.274,483.055,515.274,479.055" fill="#181818" style="stroke:#181818;stroke-width:1;stroke-linejoin:miter;stroke-miterlimit:10;"/><line x1="513.274" y1="479.055" x2="661.103" y2="479.055" style="stroke:#181818;stroke-width:1;stroke-dasharray:2,2;"/><text x="525.274" y="473.989" fill="#000" font-size="13" textLength="31.986">error</text><polygon points="946.256,504.188,956.256,508.188,946.256,512.188,950.256,508.188" fill="#181818" style="stroke:#181818;stroke-width:1;stroke-linejoin:miter;stroke-miterlimit:10;"/><line x1="508.274" y1="508.188" x2="952.256" y2="508.188" style="stroke:#181818;stroke-width:1;"/><text x="515.274" y="503.122" fill="#000" font-size="13" textLength="110.449">set(intentos + 1)</text><polygon points="291.654,533.32,281.654,537.32,291.654,541.32,287.654,537.32" fill="#181818" style="stroke:#181818;stroke-width:1;stroke-linejoin:miter;stroke-miterlimit:10;"/><line x1="285.654" y1="537.32" x2="507.274" y2="537.32" style="stroke:#181818;stroke-width:1;stroke-dasharray:2,2;"/><text x="297.654" y="532.254" fill="#000" font-size="13" textLength="203.62">credenciales no válidas (FE-01)</text><polygon points="519.274,593.258,509.274,597.258,519.274,601.258,515.274,597.258" fill="#181818" style="stroke:#181818;stroke-width:1;stroke-linejoin:miter;stroke-miterlimit:10;"/><line x1="513.274" y1="597.258" x2="661.103" y2="597.258" style="stroke:#181818;stroke-width:1;stroke-dasharray:2,2;"/><text x="525.274" y="592.192" fill="#000" font-size="13" textLength="129.829">usuario autenticado</text><polygon points="946.256,622.391,956.256,626.391,946.256,630.391,950.256,626.391" fill="#181818" style="stroke:#181818;stroke-width:1;stroke-linejoin:miter;stroke-miterlimit:10;"/><line x1="508.274" y1="626.391" x2="952.256" y2="626.391" style="stroke:#181818;stroke-width:1;"/><text x="515.274" y="621.325" fill="#000" font-size="13" textLength="104.108">delete(intentos)</text><line x1="508.274" y1="655.523" x2="550.274" y2="655.523" style="stroke:#181818;stroke-width:1;"/><line x1="550.274" y1="655.523" x2="550.274" y2="668.523" style="stroke:#181818;stroke-width:1;"/><line x1="509.274" y1="668.523" x2="550.274" y2="668.523" style="stroke:#181818;stroke-width:1;"/><polygon points="519.274,664.523,509.274,668.523,519.274,672.523,515.274,668.523" fill="#181818" style="stroke:#181818;stroke-width:1;stroke-linejoin:miter;stroke-miterlimit:10;"/><text x="515.274" y="650.458" fill="#000" font-size="13" textLength="73.938">crea sesión</text><polygon points="291.654,693.656,281.654,697.656,291.654,701.656,287.654,697.656" fill="#181818" style="stroke:#181818;stroke-width:1;stroke-linejoin:miter;stroke-miterlimit:10;"/><line x1="285.654" y1="697.656" x2="507.274" y2="697.656" style="stroke:#181818;stroke-width:1;stroke-dasharray:2,2;"/><text x="297.654" y="692.59" fill="#000" font-size="13" textLength="105.035">redirige a Home</text><?plantuml-src PLFHZjCm47ptLwpwb0X578TuGQ9ILLfHgO88I5-hFMSljN2znNPwki_X4n2Vq1zZxLnovNZCpdWyCzv44ot1HuETnoD2In18z-IqGQXWsLGtjx1nHZwz8C5S_ZWLVXXtGk53E63B3yPrS8ysa48TsKCJUlI60GCqwevxrw9_X5cDBgAr-HBBdN6pnAYtIhEBdYtC5bfJu9sXXmmjTefSD57ERXD_pVwOWUrw0ZJg0oL5uwBCE6J2SZCHHZD54yYN6Lqr4rgJlpTscDPADL3DnH6y5xdEKq10Qp2yrkmzCJn2jeg1BhzH2K_OYvsmwo_VlWEA-vQyaedCbnkPTnIBqLYfqCR99im_m3ieldwkRjwM2f9CDTvzP_bdBzT5EfxOeuLYlSeqIXqFtBcKa6o6_LaijaNIaCaurvRGxNk9xF18HIdY87bwicSQCW73a6ewk6ha8FRnaChH6EbAT5KBTkebtzuCsx1Fsy1EfBExsyHD0RKNKbeVIq7IdY-_n1u6GGUjiJBoddsUNlKLhlg2L_2cd0XZD__8EuPHVt2H3wIMycE4fuYobFzTtuyxsiSXRiilpRHaIKfuVhzdF4k85Pp-YPS-nQRnfXCZy8cFwTN8jR9sxLy0?></g></svg>